<?xml version="1.0" encoding="utf-8"?><svg viewBox="0 0 70 75" xmlns="http://www.w3.org/2000/svg" xmlns:xlink="http://www.w3.org/1999/xlink"><style>:root>svg{display:none}:root>svg:target{display:block}</style><svg viewBox="0 0 70 75" id="logo" xmlns="http://www.w3.org/2000/svg"><g clip-path="url(#aa)"><path d="M40.38 62.09c-.09 0-.134.045-.134.137v.138c0 .091.045.137.134.137h17.668c.134 0 .201-.046.201-.138v-.137c0-.092-.067-.137-.2-.137h-2.075c-1.383 0-2.365-.253-2.945-.757-.536-.504-.982-1.328-1.339-2.474a541.7 541.7 0 0 1-6.224-21.17 2426.591 2426.591 0 0 1-5.688-21.308c-.268-.963-.268-1.765 0-2.406.267-.642.892-.963 1.873-.963h4.016c.134 0 .2-.068.2-.206v-.068c0-.092-.066-.138-.2-.138h-26.77c-.179 0-.268.046-.268.138v.068c0 .138.089.207.268.207h4.952c.892 0 1.339.412 1.339 1.237 0 .366-.045.733-.134 1.1-.09.32-.246.801-.469 1.443a328.795 328.795 0 0 1-1.472 3.78 815.614 815.614 0 0 1-1.673 4.4 812.423 812.423 0 0 0-1.674 4.399 1098.03 1098.03 0 0 1-1.405 3.711 222.81 222.81 0 0 1-2.61 6.599 138.765 138.765 0 0 0-2.275 6.186 68.757 68.757 0 0 0-1.674 5.499c-.401 1.695-.602 3.253-.602 4.674 0 2.429.58 4.193 1.74 5.293 1.16 1.1 2.61 1.65 4.35 1.65 1.428 0 2.722-.39 3.882-1.17 1.16-.824 2.253-1.832 3.28-3.024a42.91 42.91 0 0 0 3.011-3.918 46.538 46.538 0 0 1 3.012-3.918c1.026-1.237 2.097-2.245 3.212-3.024 1.16-.825 2.41-1.237 3.748-1.237 2.142 0 3.793.641 4.953 1.925a12.016 12.016 0 0 1 2.543 4.399c.357 1.008.625 1.97.803 2.886.223.917.446 1.742.67 2.475.088.412.11.848.066 1.306 0 .458-.134.87-.401 1.237-.224.32-.625.596-1.205.825-.535.229-1.272.344-2.209.344H40.38zM22.577 34.183c2.544 0 4.395.596 5.555 1.787 1.16 1.146 1.74 3.025 1.74 5.636v7.149a46.15 46.15 0 0 0-2.877 2.337 54.351 54.351 0 0 1-2.744 2.268 19.508 19.508 0 0 1-2.61 1.718c-.848.413-1.696.62-2.544.62-1.249 0-2.387-.39-3.413-1.17-1.026-.824-1.54-2.176-1.54-4.055 0-1.145.18-2.451.536-3.918a87.247 87.247 0 0 1 1.339-4.536 145.25 145.25 0 0 1 1.606-4.33 239.6 239.6 0 0 0 1.338-3.506h3.614zm2.61-16.634c.536-1.375 1.205-2.268 2.008-2.68a6.823 6.823 0 0 1 2.677-.688v11.96c0 2.704-.557 4.651-1.673 5.843-1.115 1.19-2.99 1.787-5.622 1.787h-3.48l2.008-5.362c.67-1.833 1.294-3.505 1.874-5.017.58-1.513 1.049-2.796 1.405-3.85.402-1.054.67-1.718.804-1.993zM41.92 41.95c.09.32.179.71.268 1.169.09.458.134.893.134 1.306.044.412.022.802-.067 1.168-.045.32-.179.55-.402.688-.089.045-.245.068-.468.068-.446 0-.982-.091-1.606-.275-.58-.229-1.384-.343-2.41-.343-1.25 0-2.454.274-3.614.824a21.945 21.945 0 0 0-3.48 1.925v-6.873c0-2.658.535-4.56 1.606-5.706 1.116-1.145 2.99-1.718 5.622-1.718h2.342c.357 1.283.692 2.59 1.004 3.918l1.071 3.85zm-4.417-8.18c-2.543 0-4.395-.618-5.555-1.855-1.115-1.238-1.673-3.162-1.673-5.774v-11.96c1.562.046 2.722.39 3.48 1.031.759.642 1.294 1.512 1.606 2.612.491 1.741 1.116 4.01 1.874 6.805.759 2.795 1.584 5.842 2.477 9.142h-2.209z"/></g><defs><clipPath id="aa"><path d="M0 0h70v74.375H0z"/></clipPath></defs></svg><svg viewBox="0 0 13 13" id="project-arrow" xmlns="http://www.w3.org/2000/svg"><path d="M11.868 0v12M12 .5H0m11.722.485L.985 11.722"/></svg><svg viewBox="0 0 40 40" id="review" xmlns="http://www.w3.org/2000/svg"><path d="M16.638 5v12.318c0 9.507-6.218 15.95-14.971 17.682L.008 31.415c4.054-1.528 6.659-6.063 6.659-9.748H0V5h16.638zM40 5v12.318C40 26.825 33.753 33.27 25 35l-1.66-3.585c4.055-1.528 6.66-6.063 6.66-9.748h-6.638V5H40z"/></svg></svg>